<svg width="163" height="28" viewBox="0 0 163 28" fill="none" xmlns="http://www.w3.org/2000/svg"><path fill-rule="evenodd" clip-rule="evenodd" d="M0 5.75539L8.17844 2.875V27.9884H0V5.75539Z" fill="white"/><path fill-rule="evenodd" clip-rule="evenodd" d="M13.1424 2.87477L21.3046 0V27.9882H13.1424V2.87477Z" fill="white"/><path fill-rule="evenodd" clip-rule="evenodd" d="M0 15.2545L8.17844 21.4013L21.3034 13.1743V6.58691L8.17844 14.8136L0 8.66565V15.2545Z" fill="#40B553"/><path d="M37.7962 8V13.5049H32.1447V8H28V22.6524H32.1447V16.9379H37.7962V22.6524H41.9409V8H37.7962ZM53.9349 22.6524H58.3725L55.2117 18.0473C57.0328 17.1682 58.0796 15.5774 58.0796 13.4215C58.0796 10.0722 55.5678 8.00027 51.5697 8.00027H44.8714V22.6526H49.0161V18.7593H51.2768L53.9352 22.6526L53.9349 22.6524ZM53.8931 13.4215C53.8931 14.7612 53.035 15.5566 51.3186 15.5566H49.0161V11.2656H51.3186C53.035 11.2656 53.8931 12.061 53.8931 13.4215Z" fill="#40B553"/><path d="M77.9118 22.6526L77.891 13.861L73.5789 21.1037H72.051L67.7597 14.0495V22.6526H64.5781V8.00027H67.3831L72.8672 17.1056L78.2677 8.00027H81.0516L81.0934 22.6526H77.9118ZM89.9061 16.8963L87.9384 18.9478V22.6526H84.568V8.00027H87.9384V14.8449L94.4271 8.00027H98.1949L92.1249 14.5309L98.551 22.6526H94.5948L89.9063 16.8963H89.9061ZM110.817 15.0331C111.654 15.2982 112.31 15.7413 112.785 16.3626C113.259 16.9835 113.496 17.7474 113.496 18.6545C113.496 19.9384 112.997 20.9255 112 21.6164C111.002 22.307 109.547 22.6524 107.635 22.6524H100.058V8H107.217C109.003 8 110.374 8.34181 111.33 9.02544C112.286 9.70934 112.764 10.6373 112.764 11.8096C112.764 12.5211 112.593 13.1561 112.251 13.7144C111.909 14.2728 111.431 14.7121 110.817 15.0331H110.817ZM103.428 10.5539V14.0077H106.798C107.635 14.0077 108.27 13.861 108.703 13.5678C109.136 13.2749 109.352 12.8424 109.352 12.27C109.352 11.6978 109.136 11.2688 108.703 10.9826C108.27 10.6967 107.636 10.5536 106.798 10.5536H103.428V10.5539ZM107.384 20.0987C108.277 20.0987 108.95 19.9524 109.404 19.6592C109.858 19.3662 110.084 18.9127 110.084 18.2984C110.084 17.0842 109.184 16.4776 107.384 16.4776H103.428V20.0987H107.384ZM125.72 19.5126H118.918L117.62 22.6524H114.145L120.676 8H124.025L130.577 22.6524H127.018L125.72 19.5126ZM124.653 16.9382L122.33 11.3282L120.006 16.9382H124.653ZM145.543 8.00027V22.6526H142.759L135.454 13.7566V22.6526H132.104V8.00027H134.909L142.194 16.8963V8.00027H145.543ZM154.355 16.8963L152.388 18.9478V22.6526H149.017V8.00027H152.388V14.8449L158.877 8.00027H162.644L156.574 14.5309L163 22.6526H159.044L154.356 16.8963H154.355Z" fill="white"/></svg>