<svg xmlns="http://www.w3.org/2000/svg"  viewBox="0 0 20 20">
  <symbol id="icon-facebook" viewBox="0 0 20 20" width="32" height="32">
    <path fill="oklch(0.809 0.105 251.813)" d="M17 1H3c-1.1 0-2 .9-2 2v14c0 1.101.9 2 2 2h7v-7H8V9.525h2v-2.05c0-2.164 1.212-3.684 3.766-3.684l1.803.002v2.605h-1.197c-.994 0-1.372.746-1.372 1.438v1.69h2.568L15 12h-2v7h4c1.1 0 2-.899 2-2V3c0-1.1-.9-2-2-2"/>
  </symbol>
  <symbol id="icon-instagram" viewBox="0 0 20 20" width="32" height="32">
    <path fill="oklch(0.809 0.105 251.813)" d="M17 1H3c-1.1 0-2 .9-2 2v14c0 1.101.9 2 2 2h14c1.1 0 2-.899 2-2V3c0-1.1-.9-2-2-2M9.984 15.523a5.54 5.54 0 0 0 5.538-5.539c0-.338-.043-.664-.103-.984H17v7.216a.69.69 0 0 1-.693.69H3.693a.69.69 0 0 1-.693-.69V9h1.549c-.061.32-.104.646-.104.984a5.54 5.54 0 0 0 5.539 5.539M6.523 9.984a3.461 3.461 0 1 1 6.922 0a3.461 3.461 0 0 1-6.922 0M16.307 6h-1.615A.694.694 0 0 1 14 5.308V3.691c0-.382.31-.691.691-.691h1.615c.384 0 .694.309.694.691v1.616c0 .381-.31.693-.693.693"/>
  </symbol>
  <symbol id="icon-youtube" viewBox="0 0 30 20" width="32" height="32">
    <path fill="oklch(0.809 0.105 251.813)" d="M10 2.3C.172 2.3 0 3.174 0 10s.172 7.7 10 7.7s10-.874 10-7.7s-.172-7.7-10-7.7m3.205 8.034l-4.49 2.096c-.393.182-.715-.022-.715-.456V8.026c0-.433.322-.638.715-.456l4.49 2.096c.393.184.393.484 0 .668"/>
  </symbol>
  <symbol id="icon-telegram" viewBox="0 0 24 24" width="28" height="28">
    <path fill="oklch(0.809 0.105 251.813)" d="M12 2C6.48 2 2 6.48 2 12s4.48 10 10 10s10-4.48 10-10S17.52 2 12 2m4.64 6.8c-.15 1.58-.8 5.42-1.13 7.19c-.14.75-.42 1-.68 1.03c-.58.05-1.02-.38-1.58-.75c-.88-.58-1.38-.94-2.23-1.5c-.99-.65-.35-1.01.22-1.59c.15-.15 2.71-2.48 2.76-2.69a.2.2 0 0 0-.05-.18c-.06-.05-.14-.03-.21-.02c-.09.02-1.49.95-4.22 2.79c-.4.27-.76.41-1.08.4c-.36-.01-1.04-.2-1.55-.37c-.63-.2-1.12-.31-1.08-.66c.02-.18.27-.36.74-.55c2.92-1.27 4.86-2.11 5.83-2.51c2.78-1.16 3.35-1.36 3.73-1.36c.08 0 .27.02.39.12c.1.08.13.19.14.27c-.01.06.01.24 0 .38"/>
  </symbol>
</svg>